<?xml version="1.0" encoding="iso-8859-1"?>
<!-- Generator: Adobe Illustrator 19.0.0, SVG Export Plug-In . SVG Version: 6.00 Build 0)  -->
<svg version="1.1" id="Layer_1" xmlns="http://www.w3.org/2000/svg" xmlns:xlink="http://www.w3.org/1999/xlink" x="0px" y="0px"
	 viewBox="0 0 512 512" style="enable-background:new 0 0 512 512;" xml:space="preserve">
<path d="M512,99.04V73.6c0-15.84-12.96-28.8-28.8-28.8H115.04H28.8C12.96,44.8,0,57.76,0,73.6v25.44H512z"/>
<g>
	<path style="opacity:0.25;fill:#FFFFFF;enable-background:new    ;" d="M147.04,44.8h-32H28.8C12.96,44.8,0,57.76,0,73.6v25.44
		h115.84L147.04,44.8z"/>
	<rect x="8" y="107.2" style="fill:#FFFFFF;" width="496" height="352"/>
</g>
<path style="fill:#EFEFEF;" d="M496,115.2v336H16v-336L496,115.2 M512,99.2H0v368h512V99.2L512,99.2z"/>
<path style="fill:#E0E0E0;" d="M488,123.2v320H24v-320L488,123.2 M492,119.2H20v328h472V119.2L492,119.2z"/>
<circle style="fill:#FF0000;" cx="40.48" cy="72" r="8.16"/>
<circle style="fill:#22ACDD;" cx="65.12" cy="72" r="8.16"/>
<g>
	<circle style="fill:#FFFFFF;" cx="89.6" cy="72" r="8.16"/>
	<path style="fill:#FFFFFF;" d="M428.32,86.4H170.88c-7.84,0-14.4-6.4-14.4-14.4l0,0c0-7.84,6.4-14.4,14.4-14.4h257.44
		c7.84,0,14.4,6.4,14.4,14.4l0,0C442.56,79.84,436.16,86.4,428.32,86.4z"/>
</g>
<path d="M180.64,65.44l1.92,7.52c0.48,1.6,0.8,3.2,1.12,4.8h0.16c0.32-1.44,0.8-3.04,1.28-4.64l2.4-7.52h2.24l2.24,7.52
	c0.48,1.76,0.96,3.36,1.28,4.8h0.16c0.32-1.44,0.64-3.04,1.12-4.8l2.08-7.52h2.72l-4.8,14.88h-2.4l-2.24-7.04
	c-0.48-1.6-0.96-3.2-1.28-4.96l0,0c-0.32,1.76-0.8,3.36-1.28,4.96l-2.4,7.04h-2.4l-4.48-14.88h2.56V65.44z"/>
<path d="M203.52,65.44l1.92,7.52c0.48,1.6,0.8,3.2,1.12,4.8h0.16c0.32-1.44,0.8-3.04,1.28-4.64l2.4-7.52h2.24l2.24,7.52
	c0.48,1.76,0.96,3.36,1.28,4.8h0.16c0.32-1.44,0.64-3.04,1.12-4.8l2.08-7.52h2.72l-4.8,14.88h-2.4l-2.24-7.36
	c-0.48-1.6-0.96-3.2-1.28-4.96l0,0c-0.32,1.76-0.8,3.36-1.28,4.96l-2.4,7.04h-2.4l-4.48-14.88h2.56V65.44z"/>
<path d="M226.56,65.44l1.92,7.52c0.48,1.6,0.8,3.2,1.12,4.8h0.16c0.32-1.44,0.8-3.04,1.28-4.64l2.4-7.52h2.24l2.24,7.52
	c0.48,1.76,0.96,3.36,1.28,4.8h0.16c0.32-1.44,0.64-3.04,1.12-4.8l2.08-7.52h2.72l-4.8,14.88h-2.4l-2.24-7.04
	c-0.48-1.6-0.96-3.2-1.28-4.96l0,0c-0.32,1.76-0.8,3.36-1.28,4.96l-2.4,7.04h-2.4L224,65.6h2.56V65.44z"/>
<path d="M246.24,78.72c0-1.12,0.8-1.92,1.92-1.92s1.76,0.8,1.76,1.92c0,1.12-0.64,1.92-1.92,1.92
	C246.88,80.64,246.24,79.84,246.24,78.72z"/>
<g>
	<rect x="461.28" y="70.4" style="fill:#FFFFFF;" width="23.04" height="4"/>
	<polygon style="fill:#FFFFFF;" points="474.56,84.32 471.68,81.44 480.8,72.32 471.68,63.2 474.56,60.48 486.56,72.32 	"/>
</g>
<polygon style="fill:#C9C9C9;" points="429.76,67.36 422.24,77.28 414.56,67.36 "/>
<g>
	<path style="fill:#F33052;" d="M80.16,259.2l48.48-24.96v7.2l-40.8,20.48v0.16l40.8,20.48v7.2L80.16,264.8V259.2z"/>
	<path style="fill:#F33052;" d="M141.92,280.48c2.72,1.76,7.52,3.68,12.16,3.68c6.72,0,9.76-3.36,9.76-7.52
		c0-4.32-2.56-6.72-9.44-9.28c-9.12-3.2-13.44-8.16-13.44-14.24c0-8.16,6.56-14.88,17.44-14.88c5.12,0,9.6,1.44,12.48,3.2
		l-2.24,6.72c-1.92-1.28-5.6-2.88-10.4-2.88c-5.44,0-8.48,3.2-8.48,6.88c0,4.16,3.04,6.08,9.6,8.48c8.8,3.36,13.28,7.68,13.28,15.2
		c0,8.96-6.88,15.2-18.88,15.2c-5.6,0-10.72-1.44-14.24-3.52L141.92,280.48z"/>
	<path style="fill:#F33052;" d="M220.64,288c-2.4,1.28-7.68,2.88-14.56,2.88c-15.2,0-25.12-10.4-25.12-25.76
		c0-15.52,10.72-26.88,27.2-26.88c5.44,0,10.24,1.44,12.8,2.56l-2.08,7.04c-2.24-1.28-5.6-2.4-10.72-2.4
		c-11.52,0-17.92,8.48-17.92,19.04c0,11.68,7.52,18.88,17.6,18.88c5.28,0,8.64-1.44,11.36-2.56L220.64,288z"/>
	<path style="fill:#F33052;" d="M231.36,255.04c0-5.92-0.16-11.04-0.48-15.84h8l0.32,9.92h0.48c2.24-6.72,7.84-11.04,13.92-11.04
		c0.96,0,1.76,0.16,2.56,0.32v8.64c-0.96-0.16-1.92-0.32-3.2-0.32c-6.4,0-11.04,4.96-12.32,11.84c-0.16,1.28-0.48,2.72-0.48,4.32
		v26.88h-9.12v-34.72H231.36z"/>
	<path style="fill:#F33052;" d="M276.16,225.12c0.16,3.2-2.24,5.6-5.92,5.6c-3.2,0-5.6-2.56-5.6-5.6c0-3.2,2.4-5.76,5.76-5.76
		C273.92,219.36,276.16,221.92,276.16,225.12z M265.92,289.76V239.2h9.12v50.56H265.92z"/>
	<path style="fill:#F33052;" d="M290.4,255.84c0-6.4-0.16-11.68-0.48-16.48h8.32l0.48,8.64h0.16c3.68-6.08,9.76-9.76,17.92-9.76
		c12.16,0,21.44,10.4,21.44,25.76c0,18.24-11.04,27.2-23.04,27.2c-6.72,0-12.48-2.88-15.52-8h-0.16v27.52h-9.12L290.4,255.84
		L290.4,255.84z M299.52,269.28c0,1.44,0.16,2.56,0.48,3.84c1.6,6.4,7.2,10.72,13.76,10.72c9.76,0,15.36-8,15.36-19.52
		c0-10.08-5.28-18.72-15.04-18.72c-6.24,0-12.16,4.48-13.92,11.36c-0.32,1.12-0.64,2.56-0.64,3.68L299.52,269.28L299.52,269.28z"/>
	<path style="fill:#F33052;" d="M360.96,224.8v14.56h13.12v7.04h-13.12v27.2c0,6.24,1.76,9.76,6.88,9.76c2.4,0,4.16-0.32,5.28-0.64
		l0.48,6.88c-1.76,0.8-4.64,1.28-8.16,1.28c-4.32,0-7.68-1.44-9.92-3.84c-2.72-2.72-3.52-7.2-3.52-13.12V246.4h-7.84v-7.04H352
		V227.2L360.96,224.8z"/>
	<path style="fill:#F33052;" d="M432.16,264.96l-48.48,24.8v-7.2l41.12-20.48v-0.16l-41.12-20.48v-7.2l48.48,24.8V264.96z"/>
</g>
<rect x="80.16" y="330.56" style="fill:#22ACDD;" width="352" height="11.2"/>
<g>
</g>
<g>
</g>
<g>
</g>
<g>
</g>
<g>
</g>
<g>
</g>
<g>
</g>
<g>
</g>
<g>
</g>
<g>
</g>
<g>
</g>
<g>
</g>
<g>
</g>
<g>
</g>
<g>
</g>
</svg>
